<?xml version="1.0" encoding="UTF-8" standalone="no"?>
<!-- Created with Inkscape (http://www.inkscape.org/) -->

<svg
   xmlns:dc="http://purl.org/dc/elements/1.1/"
   xmlns:cc="http://creativecommons.org/ns#"
   xmlns:rdf="http://www.w3.org/1999/02/22-rdf-syntax-ns#"
   xmlns:svg="http://www.w3.org/2000/svg"
   xmlns="http://www.w3.org/2000/svg"
   xmlns:xlink="http://www.w3.org/1999/xlink"
   xmlns:sodipodi="http://sodipodi.sourceforge.net/DTD/sodipodi-0.dtd"
   xmlns:inkscape="http://www.inkscape.org/namespaces/inkscape"
   width="450.52805"
   height="446.48743"
   id="svg2"
   version="1.1"
   inkscape:version="0.91 r13725"
   sodipodi:docname="go.svg">
  <defs
     id="defs4">
    <linearGradient
       x1="7.4380002"
       x2="120.63"
       id="4"
       xlink:href="#2"
       gradientUnits="userSpaceOnUse" />
    <linearGradient
       id="2">
      <stop
         id="7"
         stop-color="#f0ff80" />
      <stop
         id="8"
         offset="1"
         stop-color="#8bb300" />
    </linearGradient>
    <radialGradient
       cx="23.987"
       cy="10.853"
       r="56.16"
       id="5"
       xlink:href="#3"
       gradientUnits="userSpaceOnUse"
       gradientTransform="matrix(0,2.2729686,-2.2293307,0,8.5534597,-1.7792288)" />
    <linearGradient
       id="3">
      <stop
         id="9"
         stop-color="#eee" />
      <stop
         id="A"
         offset="1"
         stop-color="#eee"
         stop-opacity="0" />
    </linearGradient>
  </defs>
  <sodipodi:namedview
     id="base"
     pagecolor="#ffffff"
     bordercolor="#666666"
     borderopacity="1.0"
     inkscape:pageopacity="0.0"
     inkscape:pageshadow="2"
     inkscape:zoom="1.3256733"
     inkscape:cx="197.72405"
     inkscape:cy="410.69429"
     inkscape:document-units="px"
     inkscape:current-layer="layer1"
     showgrid="false"
     inkscape:window-width="2060"
     inkscape:window-height="1433"
     inkscape:window-x="4398"
     inkscape:window-y="405"
     inkscape:window-maximized="0"
     fit-margin-top="0"
     fit-margin-left="0"
     fit-margin-right="0"
     fit-margin-bottom="0" />
  <metadata
     id="metadata7">
    <rdf:RDF>
      <cc:Work
         rdf:about="">
        <dc:format>image/svg+xml</dc:format>
        <dc:type
           rdf:resource="http://purl.org/dc/dcmitype/StillImage" />
        <dc:title />
      </cc:Work>
    </rdf:RDF>
  </metadata>
  <g
     inkscape:label="Layer 1"
     inkscape:groupmode="layer"
     id="layer1"
     transform="translate(4.7866896,7.5336323)">
    <g
       transform="matrix(3.8136969,0,0,3.8136969,-23.844782,-29.330778)"
       id="1">
      <g
         transform="matrix(-1,0,0,1,128,0)"
         id="6">
        <path
           style="fill:#007880;fill-rule:evenodd;stroke-width:3.39299989"
           inkscape:connector-curvature="0"
           d="m 118.14842,35.975001 c -0.0747,-0.762327 -0.71537,-1.343711 -1.48129,-1.344231 l -39.994662,0 -0.02743,-23.290841 c 0.0026,-0.57881 -0.326953,-1.097215 -0.850366,-1.344238 -0.523416,-0.2470233 -1.145904,-0.1779279 -1.59101,0.192034 L 10.37131,63.325971 c -0.341957,0.287001 -0.5265185,0.705774 -0.5211938,1.152197 0.00531,0.446423 0.1999218,0.87342 0.5486208,1.152198 l 63.832356,52.205524 c 0.445601,0.35289 1.05061,0.40944 1.563578,0.16459 0.512966,-0.24484 0.844443,-0.74839 0.850366,-1.31679 l 0.02743,-23.290855 39.994663,0.02743 c 0.39697,-0.0021 0.76426,-0.155639 1.04239,-0.438932 0.27812,-0.283293 0.44405,-0.67292 0.4389,-1.069898 l 0,-55.799271 c 0.002,-0.0457 0.002,-0.09147 0,-0.137166 z"
           id="B" />
        <path
           style="fill:#638000;fill-rule:evenodd;stroke-width:3.39299989"
           inkscape:connector-curvature="0"
           d="m 118.14842,35.975001 c -0.0747,-0.762327 -0.71537,-1.343711 -1.48129,-1.344231 l -39.994662,0 -0.02743,-23.290841 c 0.0026,-0.57881 -0.326953,-1.097215 -0.850366,-1.344238 -0.523416,-0.2470233 -1.145904,-0.1779279 -1.59101,0.192034 L 10.37131,63.325971 c -0.341957,0.287001 -0.5265185,0.705774 -0.5211938,1.152197 0.00531,0.446423 0.1999218,0.87342 0.5486208,1.152198 l 63.832356,52.205524 c 0.445601,0.35289 1.05061,0.40944 1.563578,0.16459 0.512966,-0.24484 0.844443,-0.74839 0.850366,-1.31679 l 0.02743,-23.290855 39.994663,0.02743 c 0.39697,-0.0021 0.76426,-0.155639 1.04239,-0.438932 0.27812,-0.283293 0.44405,-0.67292 0.4389,-1.069898 l 0,-55.799271 c 0.002,-0.0457 0.002,-0.09147 0,-0.137166 z"
           id="C" />
        <path
           style="fill:url(#4);fill-rule:evenodd;stroke-width:3.39299989"
           inkscape:connector-curvature="0"
           d="m 33.9375,6.46875 0,43.5 A 2.4825178,2.4825178 0 0 1 31.46875,52.4375 L 7.4375,52.46875 64.53125,121.09375 120.625,52.46875 96.5625,52.4375 a 2.4825178,2.4825178 0 0 1 -2.46875,-2.46875 l 0.03125,-43.5 -60.1875,0 z"
           transform="matrix(0,0.9025,-0.9025,0,121.76,6.2400004)"
           id="D" />
        <path
           style="fill:none;stroke:url(#5);stroke-width:2.0999999;stroke-linecap:round;stroke-linejoin:round;stroke-miterlimit:10"
           inkscape:connector-curvature="0"
           d="m 34.65625,7.1875 0,42.78125 a 3.1782877,3.1782877 0 0 1 -3.1875,3.1875 L 8.90625,53.1875 64.5,120 119.125,53.1875 96.5625,53.15625 a 3.1782877,3.1782877 0 0 1 -3.1875,-3.1875 l 0.03125,-42.78125 -58.75,0 z"
           transform="matrix(0,0.9025,-0.9025,0,121.76,6.2400004)"
           id="E"
           stroke-miterlimit="10" />
      </g>
    </g>
  </g>
</svg>
