<?xml version="1.0" encoding="UTF-8" standalone="no"?>
<!-- Generator: Adobe Illustrator 9.0, SVG Export Plug-In  -->

<svg
   xmlns:dc="http://purl.org/dc/elements/1.1/"
   xmlns:cc="http://creativecommons.org/ns#"
   xmlns:rdf="http://www.w3.org/1999/02/22-rdf-syntax-ns#"
   xmlns:svg="http://www.w3.org/2000/svg"
   xmlns="http://www.w3.org/2000/svg"
   xmlns:sodipodi="http://sodipodi.sourceforge.net/DTD/sodipodi-0.dtd"
   xmlns:inkscape="http://www.inkscape.org/namespaces/inkscape"
   width="48"
   height="48"
   viewBox="0 0 48 48"
   xml:space="preserve"
   id="svg2"
   sodipodi:version="0.32"
   inkscape:version="0.91 r13725"
   sodipodi:docname="save_www.svg"
   version="1.0"
   hola_ext_inject="disabled"><metadata
     id="metadata25"><rdf:RDF><cc:Work
         rdf:about=""><dc:format>image/svg+xml</dc:format><dc:type
           rdf:resource="http://purl.org/dc/dcmitype/StillImage" /><dc:title /></cc:Work></rdf:RDF></metadata><defs
     id="defs23" /><sodipodi:namedview
     inkscape:window-height="1234"
     inkscape:window-width="1625"
     inkscape:pageshadow="2"
     inkscape:pageopacity="0.0"
     borderopacity="1.0"
     bordercolor="#666666"
     pagecolor="#ffffff"
     id="base"
     showgrid="true"
     inkscape:grid-bbox="true"
     inkscape:grid-points="true"
     inkscape:zoom="16.416667"
     inkscape:cx="10.729338"
     inkscape:cy="24.011974"
     inkscape:window-x="607"
     inkscape:window-y="451"
     inkscape:current-layer="svg2"
     inkscape:window-maximized="0" /><path
     style="fill:none;fill-rule:nonzero;stroke:#000000;stroke-width:6;stroke-linecap:round;stroke-linejoin:round;stroke-miterlimit:4;stroke-dasharray:none"
     d="M 40,39 L 12,39 L 8,35 L 8,8 L 40,8 L 40,39 z "
     id="path9"
     sodipodi:nodetypes="cccccc" /><path
     style="fill-rule:nonzero;stroke:none;stroke-miterlimit:4"
     d="M 39.8,38.7 L 12,38.7 L 8.2,34.9 L 8.2,8.8 L 39.8,8.8 L 39.8,38.7 z "
     id="path11" /><path
     style="fill:#ffffff;fill-rule:nonzero;stroke:none;stroke-width:1.67390001;stroke-miterlimit:4"
     d="M 33,37 C 33,38.1 32.1,39 31,39 L 14,39 C 12.9,39 12,38.1 12,37 L 12,28 C 12,26.9 12.9,26 14,26 L 31,26 C 32.1,26 33,26.9 33,28 L 33,37 z "
     id="path13"
     sodipodi:nodetypes="ccccccccc" /><path
     style="fill-rule:nonzero;stroke:none;stroke-miterlimit:4"
     d="M 21,37 L 15,37 L 15,28 L 21,28 L 21,37 z "
     id="path15"
     sodipodi:nodetypes="ccccc" /><path
     style="fill:#ffffff;fill-rule:nonzero;stroke:none;stroke-width:1.67390001;stroke-miterlimit:4"
     d="M 38,22 L 10,22 L 10,9 L 38,9 L 38,22 z "
     id="path17"
     sodipodi:nodetypes="ccccc" /><g
     id="crop_x0020_marks"
     style="fill-rule:nonzero;stroke:#000000;stroke-miterlimit:4"><path
       style="fill:none;stroke:none"
       d="M 48,48 L 0,48 L 0,0 L 48,0 L 48,48 z "
       id="path20" /></g><path
     style="color:#000000;font-style:normal;font-variant:normal;font-weight:normal;font-stretch:normal;font-size:medium;line-height:normal;font-family:Sans;-inkscape-font-specification:Sans;text-indent:0;text-align:start;text-decoration:none;text-decoration-line:none;letter-spacing:normal;word-spacing:normal;text-transform:none;direction:ltr;block-progression:tb;writing-mode:lr-tb;baseline-shift:baseline;text-anchor:start;display:inline;overflow:visible;visibility:visible;fill:#000000;fill-opacity:1;stroke:none;stroke-width:14;marker:none;enable-background:accumulate"
     d="m -0.54466723,-27.491421 c -15.67204977,0 -29.01805977,10.092013 -33.45911977,24.0005673 l 4.95845,0 c 0.51512,-1.374686 1.13103,-2.69932 1.84379,-3.968843 l 9.5419,0 c -0.41615,1.298229 -0.75828,2.626138 -1.0417,3.968843 l 4.83345,0 c 0.33769,-1.353112 0.74019,-2.681889 1.21878,-3.968843 l 9.2085498,0 0,3.968843 4.66678,0 0,-3.968843 9.9481502,0 c 0.535289,1.288084 0.985094,2.614585 1.364617,3.968843 l 4.833446,0 c -0.324711,-1.344121 -0.702715,-2.669453 -1.166695,-3.968843 l 9.906487,0 c 0.712897,1.269761 1.328618,2.593884 1.843794,3.968843 l 4.948031,0 C 28.462966,-17.399391 15.12737,-27.491421 -0.54466723,-27.491421 Z m 7.04183503,5.489713 c 6.5320952,1.501994 12.2370412,5.024378 16.3649712,9.875234 l -8.656453,0 c -1.933283,-3.740264 -4.4948472,-7.115961 -7.7085182,-9.875234 z m -15.448285,0.343759 c -2.8929798,2.685359 -5.1748198,5.936815 -6.8751598,9.531475 l -8.12519,0 c 3.8382,-4.510381 9.03858,-7.871717 15.0003498,-9.531475 z m 10.17733,1.500035 c 3.076808,2.106155 5.5595,4.883625 7.531427,8.03144 l -7.531427,0 0,-8.03144 z m -4.66678,0.03125 0,8.00019 -7.0314198,0 c 1.8064598,-3.155038 4.1125998,-5.92552 7.0314198,-8.00019 z M -32.607927,1.0196703 c -0.46437,1e-5 -0.85229,0.104812 -1.16669,0.322924 -0.3144,0.218132 -0.46876,0.489895 -0.46876,0.802103 0,0.233635 0.0673,0.557384 0.21876,0.979189 l 2.47922,7.1251667 c 0.0755,0.21306 0.16245,0.45324 0.26042,0.708353 0.098,0.255114 0.23486,0.482001 0.39584,0.677097 0.16098,0.195099 0.38006,0.344909 0.65627,0.458345 0.2762,0.113435 0.62306,0.16667 1.04169,0.16667 0.51918,0 0.92694,-0.09414 1.23961,-0.281256 0.31267,-0.187115 0.53586,-0.388338 0.65627,-0.614599 0.1204,-0.226255 0.27017,-0.574722 0.45834,-1.052108 l 2.21881,-6.2501467 2.20838,6.2813987 c 0.18384,0.465411 0.33031,0.808855 0.44793,1.031274 0.11759,0.222422 0.33316,0.430093 0.64585,0.614598 0.31266,0.184505 0.72868,0.270839 1.25003,0.270839 0.54808,0 0.97765,-0.08999 1.28128,-0.281256 0.30359,-0.191261 0.51608,-0.406544 0.63543,-0.645848 0.11931,-0.239305 0.2592,-0.604135 0.42709,-1.083361 l 2.47923,-7.1251667 c 0.15362,-0.447286 0.22915,-0.771035 0.22917,-0.979189 -2e-5,-0.317735 -0.16091,-0.586735 -0.47918,-0.802103 -0.3183,-0.215348 -0.70012,-0.322914 -1.15627,-0.322924 -0.45749,1e-5 -0.81045,0.08102 -1.05211,0.250005 -0.2417,0.169015 -0.40768,0.352712 -0.50001,0.552096 -0.0924,0.199407 -0.18763,0.462923 -0.28126,0.781269 l -1.75004,6.062644 -1.95838,-5.677219 c -0.183,-0.476757 -0.33163,-0.819261 -0.44793,-1.04169 -0.11632,-0.22241 -0.34101,-0.438174 -0.65626,-0.635431 -0.31528,-0.197236 -0.75501,-0.291664 -1.32295,-0.291674 -0.55847,1e-5 -0.99475,0.09123 -1.32295,0.281257 -0.32822,0.190041 -0.56264,0.412827 -0.69793,0.656265 -0.13531,0.243458 -0.28308,0.582147 -0.44793,1.031273 l -1.94796,5.677219 -1.76046,-6.104311 c -0.13768,-0.462946 -0.31635,-0.831241 -0.53127,-1.11461 -0.21492,-0.283349 -0.63996,-0.427083 -1.28128,-0.427093 z m 23.9901598,0 c -0.46438,1e-5 -0.8523,0.104812 -1.1667,0.322924 -0.3143998,0.218132 -0.4687598,0.489895 -0.4687598,0.802103 0,0.233635 0.0777,0.557384 0.22917,0.979189 l 2.4792298,7.1251667 c 0.0755,0.21306 0.16245,0.45324 0.26042,0.708353 0.098,0.255114 0.22445,0.482001 0.38543,0.677097 0.16097,0.195099 0.38005,0.344909 0.65626,0.458345 0.27621,0.113435 0.62306,0.16667 1.04169,0.16667 0.51918,0 0.93735,-0.09414 1.25003,-0.281256 0.31267,-0.187115 0.52543,-0.388338 0.64585,-0.614599 0.1204,-0.226255 0.27017,-0.574722 0.45835,-1.052108 L -0.62799723,4.0614083 1.5803828,10.342807 c 0.18384,0.465411 0.33031,0.808855 0.44793,1.031274 0.11759,0.222422 0.33316,0.430093 0.64585,0.614598 0.312661,0.184505 0.728675,0.270839 1.250029,0.270839 0.548084,0 0.977652,-0.08999 1.281281,-0.281256 0.303593,-0.191261 0.516084,-0.406544 0.63543,-0.645848 0.119313,-0.239305 0.259198,-0.604135 0.427095,-1.083361 l 2.479225,-7.1251667 c 0.153621,-0.447286 0.229152,-0.771035 0.229172,-0.979189 -2e-5,-0.317735 -0.160914,-0.586735 -0.479179,-0.802103 -0.318304,-0.215348 -0.700123,-0.322914 -1.156277,-0.322924 -0.457485,1e-5 -0.810444,0.08102 -1.052108,0.250005 -0.241695,0.169015 -0.407672,0.352712 -0.500012,0.552096 -0.09237,0.199407 -0.187622,0.462923 -0.281257,0.781269 l -1.75004,6.062644 -1.958379,-5.677219 c -0.183,-0.476757 -0.33163,-0.819261 -0.44793,-1.04169 -0.11632,-0.22241 -0.3306,-0.438174 -0.64585003,-0.635431 -0.31527,-0.197236 -0.75501,-0.291664 -1.32294,-0.291674 -0.55846997,1e-5 -1.00516997,0.09123 -1.33336997,0.281257 -0.32822,0.190041 -0.56264,0.412827 -0.69793,0.656265 -0.13531,0.243458 -0.28308,0.582147 -0.44793,1.031273 l -1.94796,5.677219 -1.76046,-6.104311 c -0.13768,-0.462946 -0.30593,-0.831241 -0.52085,-1.11461 -0.21492,-0.283349 -0.65038,-0.427083 -1.29169,-0.427093 z m 23.9901482,0 c -0.464377,1e-5 -0.852296,0.104812 -1.166695,0.322924 -0.314401,0.218132 -0.468762,0.489895 -0.468762,0.802103 0,0.233635 0.07769,0.557384 0.229172,0.979189 l 2.479225,7.1251667 c 0.07552,0.21306 0.162454,0.45324 0.260422,0.708353 0.09796,0.255114 0.224446,0.482001 0.385428,0.677097 0.160973,0.195099 0.380056,0.344909 0.656265,0.458345 0.276202,0.113435 0.62306,0.16667 1.041691,0.16667 0.519176,0 0.937348,-0.09414 1.250028,-0.281256 0.312668,-0.187115 0.525435,-0.388338 0.645851,-0.614599 0.120403,-0.226255 0.280585,-0.574722 0.468759,-1.052108 l 2.208386,-6.2501467 2.208387,6.2813987 c 0.183837,0.465411 0.330311,0.808855 0.447928,1.031274 0.117589,0.222422 0.33316,0.430093 0.645848,0.614598 0.31266,0.184505 0.728677,0.270839 1.250028,0.270839 0.548084,0 0.977655,-0.08999 1.281281,-0.281256 0.303595,-0.191261 0.516087,-0.406544 0.635433,-0.645848 0.119313,-0.239305 0.259195,-0.604135 0.427092,-1.083361 l 2.479225,-7.1251667 c 0.153621,-0.447286 0.229152,-0.771035 0.229172,-0.979189 -2e-5,-0.317735 -0.150497,-0.586735 -0.468759,-0.802103 -0.318306,-0.215348 -0.71054,-0.322914 -1.166695,-0.322924 -0.457484,1e-5 -0.810446,0.08102 -1.052108,0.250005 -0.241697,0.169015 -0.407674,0.352712 -0.500012,0.552096 -0.09237,0.199407 -0.187621,0.462923 -0.281257,0.781269 l -1.739625,6.062644 -1.968795,-5.677219 c -0.182999,-0.476757 -0.331634,-0.819261 -0.447928,-1.04169 -0.11632,-0.22241 -0.330598,-0.438174 -0.645851,-0.635431 -0.315272,-0.197236 -0.75501,-0.291664 -1.322947,-0.291674 -0.558463,1e-5 -1.005164,0.09123 -1.333365,0.281257 -0.328216,0.190041 -0.562642,0.412827 -0.697932,0.656265 -0.135308,0.243458 -0.283074,0.582147 -0.447928,1.031273 l -1.947963,5.677219 -1.75004,-6.104311 c -0.137677,-0.462946 -0.316345,-0.831241 -0.531264,-1.11461 -0.214924,-0.283349 -0.650383,-0.427083 -1.291695,-0.427093 z M -34.180877,16.155444 c 4.23969,14.222693 17.73392,24.615165 33.63620977,24.615165 15.90251723,0 29.39672523,-10.392166 33.63621623,-24.615165 l -4.9272,0 c -0.469842,1.341358 -1.031371,2.638226 -1.687541,3.885509 l -10.000235,0 c 0.42574,-1.271683 0.777171,-2.571623 1.072941,-3.885509 l -4.760529,0 c -0.332347,1.328566 -0.730537,2.626605 -1.218779,3.885509 l -10.3439932,0 0,-3.885509 -4.66678,0 0,3.885509 -9.4481398,0 c -0.42841,-1.254243 -0.797,-2.553643 -1.10419,-3.885509 l -4.79178,0 c 0.26847,1.315408 0.59612,2.613886 0.96877,3.885509 l -9.75023,0 c -0.65617,-1.247283 -1.22811,-2.544151 -1.69796,-3.885509 l -4.91678,0 z m 9.67731,8.552286 8.36479,0 c 1.70723,3.949043 3.97075,7.475893 6.8855698,10.15649 C -15.390077,33.089131 -20.679187,29.487032 -24.503567,24.70773 Z m 13.56282,0 7.5001798,0 0,8.718957 c -3.03077,-1.921244 -5.56569,-4.984097 -7.5001798,-8.718957 z m 12.1669598,0 8.021022,0 c -2.036423,3.404093 -4.684675,6.349072 -8.021022,8.500202 l 0,-8.500202 z m 13.3857312,0 8.802293,0 C 19.202133,29.971564 13.204131,33.80414 6.2679978,35.343398 9.8271608,32.465483 12.592586,28.801286 14.611944,24.70773 Z"
     id="path3592-4-4-3-8"
     inkscape:connector-curvature="0" /></svg>