<?xml version="1.0" encoding="UTF-8" standalone="no"?>
<!-- Generator: Adobe Illustrator 9.0, SVG Export Plug-In  -->

<svg
   xmlns:dc="http://purl.org/dc/elements/1.1/"
   xmlns:cc="http://creativecommons.org/ns#"
   xmlns:rdf="http://www.w3.org/1999/02/22-rdf-syntax-ns#"
   xmlns:svg="http://www.w3.org/2000/svg"
   xmlns="http://www.w3.org/2000/svg"
   xmlns:sodipodi="http://sodipodi.sourceforge.net/DTD/sodipodi-0.dtd"
   xmlns:inkscape="http://www.inkscape.org/namespaces/inkscape"
   width="48"
   height="48"
   viewBox="0 0 48 48"
   xml:space="preserve"
   id="svg2"
   sodipodi:version="0.32"
   inkscape:version="0.91 r13725"
   sodipodi:docname="save_www.svg"
   version="1.0"
   hola_ext_inject="disabled"><metadata
     id="metadata25"><rdf:RDF><cc:Work
         rdf:about=""><dc:format>image/svg+xml</dc:format><dc:type
           rdf:resource="http://purl.org/dc/dcmitype/StillImage" /><dc:title /></cc:Work></rdf:RDF></metadata><defs
     id="defs23" /><sodipodi:namedview
     inkscape:window-height="1474"
     inkscape:window-width="2505"
     inkscape:pageshadow="2"
     inkscape:pageopacity="0.0"
     borderopacity="1.0"
     bordercolor="#666666"
     pagecolor="#ffffff"
     id="base"
     showgrid="true"
     inkscape:grid-bbox="true"
     inkscape:grid-points="true"
     inkscape:zoom="19.859125"
     inkscape:cx="26.337524"
     inkscape:cy="22.732388"
     inkscape:window-x="4457"
     inkscape:window-y="394"
     inkscape:current-layer="svg2"
     inkscape:window-maximized="0" /><path
     style="color:#000000;font-style:normal;font-variant:normal;font-weight:normal;font-stretch:normal;font-size:medium;line-height:normal;font-family:Sans;-inkscape-font-specification:Sans;text-indent:0;text-align:start;text-decoration:none;text-decoration-line:none;letter-spacing:normal;word-spacing:normal;text-transform:none;direction:ltr;block-progression:tb;writing-mode:lr-tb;baseline-shift:baseline;text-anchor:start;display:inline;overflow:visible;visibility:visible;fill:#008080;fill-opacity:1;stroke:none;stroke-width:14;marker:none;enable-background:accumulate"
     d="M 24.090001,0.10030962 C 13.122314,0.10030962 3.7824453,7.1629487 0.67447781,16.8965 l 3.47004559,0 c 0.3604922,-0.962037 0.7915239,-1.889051 1.2903331,-2.777496 l 6.6776525,0 c -0.291229,0.908533 -0.530658,1.837835 -0.729001,2.777496 l 3.382567,0 c 0.236319,-0.946939 0.518004,-1.876853 0.852931,-2.777496 l 6.444372,0 0,2.777496 3.265926,0 0,-2.777496 6.961962,0 c 0.374608,0.901435 0.689393,1.82975 0.954992,2.777496 l 3.382564,0 c -0.22724,-0.940648 -0.491777,-1.868149 -0.816481,-2.777496 l 6.932804,0 c 0.498903,0.888609 0.9298,1.815263 1.290333,2.777496 l 3.462756,0 C 44.390257,7.1629643 35.057678,0.10030962 24.090001,0.10030962 Z M 29.01805,3.9421475 c 4.57132,1.051133 8.563782,3.5161867 11.45261,6.9109345 l -6.058,0 C 33.059702,8.2355492 31.267056,5.8731536 29.01805,3.9421475 Z M 18.206959,4.1827134 c -2.02458,1.8792812 -3.621471,4.1547345 -4.811408,6.6703686 l -5.6862114,0 C 10.395406,7.6966045 14.034765,5.3442613 18.206959,4.1827134 Z m 7.122345,1.0497697 c 2.153227,1.473935 3.890676,3.417673 5.27068,5.6205989 l -5.27068,0 0,-5.6205989 z m -3.265926,0.021859 0,5.5987249 -4.920761,0 c 1.2642,-2.2079724 2.878095,-4.1468216 4.920761,-5.5987252 z M 1.6513382,20.053064 c -0.3249782,8e-6 -0.5964569,0.07334 -0.81648158,0.225993 -0.22002395,0.152652 -0.32804941,0.342841 -0.32804941,0.561329 0,0.163502 0.047079,0.390067 0.15309015,0.685257 l 1.73502314,4.986369 c 0.052853,0.149103 0.1136892,0.31719 0.182251,0.495728 0.068554,0.17853 0.1643613,0.33731 0.2770186,0.473845 0.1126527,0.136537 0.2659732,0.241381 0.4592729,0.320763 0.1932909,0.07938 0.4360324,0.116644 0.729001,0.116644 0.3633324,0 0.6486903,-0.06589 0.8675101,-0.196833 0.2188134,-0.13095 0.375003,-0.271771 0.4592727,-0.430112 0.084259,-0.15834 0.1890721,-0.402204 0.3207593,-0.736293 l 1.5527728,-4.374005 1.5454839,4.39588 c 0.1286528,0.325705 0.2311595,0.566052 0.3134713,0.721704 0.082292,0.155661 0.2331526,0.300996 0.4519794,0.430112 0.218808,0.129125 0.5099465,0.189547 0.8748015,0.189547 0.383561,0 0.684187,-0.06299 0.896672,-0.196833 0.212463,-0.133848 0.361171,-0.284511 0.444692,-0.451978 0.0835,-0.167476 0.18139,-0.422795 0.298889,-0.758169 l 1.735023,-4.986369 c 0.107508,-0.313021 0.160366,-0.539586 0.160381,-0.685257 -1.5e-5,-0.222359 -0.112611,-0.410612 -0.335341,-0.561329 -0.222756,-0.150709 -0.489964,-0.225985 -0.80919,-0.225993 -0.32016,8e-6 -0.567171,0.05672 -0.736293,0.174957 -0.169145,0.118282 -0.285299,0.246842 -0.34992,0.386371 -0.06465,0.139552 -0.131302,0.323966 -0.196831,0.546755 l -1.224723,4.24279 -1.370521,-3.973062 C 8.8132846,21.097232 8.7092698,20.857535 8.6278824,20.701875 8.5464787,20.54623 8.3892314,20.395231 8.1686123,20.257183 7.9479749,20.119158 7.6402371,20.053072 7.2427789,20.053064 c -0.3908261,8e-6 -0.6961469,0.06386 -0.9258311,0.196832 -0.2296959,0.132995 -0.3937516,0.288906 -0.4884305,0.459265 -0.094692,0.170382 -0.1981024,0.407407 -0.3134706,0.721714 L 4.1518136,25.403937 2.9198015,21.131987 C 2.8234521,20.808004 2.6984158,20.550265 2.5480098,20.351951 2.3976007,20.153662 2.1001468,20.053072 1.6513382,20.053064 Z m 16.7889018,0 c -0.32498,8e-6 -0.596455,0.07334 -0.816481,0.225993 -0.220027,0.152652 -0.328052,0.342841 -0.328052,0.561329 0,0.163502 0.05437,0.390067 0.160381,0.685257 l 1.735025,4.986369 c 0.05286,0.149103 0.113688,0.31719 0.182249,0.495728 0.06856,0.17853 0.157072,0.33731 0.269731,0.473845 0.112654,0.136537 0.265972,0.241381 0.45927,0.320763 0.193295,0.07938 0.436035,0.116644 0.729001,0.116644 0.363332,0 0.655981,-0.06589 0.874803,-0.196833 0.218813,-0.13095 0.367709,-0.271771 0.45198,-0.430112 0.08426,-0.15834 0.189072,-0.402204 0.320761,-0.736293 l 1.552773,-4.374005 1.545482,4.39588 c 0.128655,0.325705 0.23116,0.566052 0.31347,0.721704 0.08229,0.155661 0.233156,0.300996 0.451981,0.430112 0.21881,0.129125 0.509946,0.189547 0.874803,0.189547 0.383562,0 0.684185,-0.06299 0.896671,-0.196833 0.212463,-0.133848 0.36117,-0.284511 0.44469,-0.451978 0.0835,-0.167476 0.181394,-0.422795 0.298893,-0.758169 l 1.735022,-4.986369 c 0.107507,-0.313021 0.160367,-0.539586 0.16038,-0.685257 -1.3e-5,-0.222359 -0.112611,-0.410612 -0.335341,-0.561329 -0.222757,-0.150709 -0.489963,-0.225985 -0.809191,-0.225993 -0.320159,8e-6 -0.567169,0.05672 -0.736292,0.174957 -0.169144,0.118282 -0.285298,0.246842 -0.349921,0.386371 -0.06464,0.139552 -0.131302,0.323966 -0.19683,0.546755 l -1.224721,4.24279 -1.370523,-3.973062 c -0.128067,-0.333643 -0.232083,-0.57334 -0.313471,-0.729 -0.08141,-0.155645 -0.231361,-0.306644 -0.45198,-0.444692 -0.220638,-0.138025 -0.528375,-0.204111 -0.925832,-0.204119 -0.390826,8e-6 -0.703439,0.06386 -0.933121,0.196832 -0.229696,0.132995 -0.393754,0.288906 -0.488432,0.459265 -0.09469,0.170382 -0.1981,0.407407 -0.313471,0.721714 l -1.363232,3.973062 -1.232014,-4.27195 c -0.09635,-0.323983 -0.214095,-0.581722 -0.364499,-0.780036 -0.150411,-0.198289 -0.455154,-0.298879 -0.903962,-0.298887 z m 16.788902,0 c -0.324982,8e-6 -0.596458,0.07334 -0.816482,0.225993 -0.220026,0.152652 -0.328051,0.342841 -0.328051,0.561329 0,0.163502 0.05437,0.390067 0.16038,0.685257 l 1.735023,4.986369 c 0.05286,0.149103 0.113689,0.31719 0.182249,0.495728 0.06856,0.17853 0.157073,0.33731 0.269733,0.473845 0.112652,0.136537 0.265972,0.241381 0.45927,0.320763 0.193293,0.07938 0.436033,0.116644 0.729001,0.116644 0.363333,0 0.65598,-0.06589 0.874801,-0.196833 0.218813,-0.13095 0.367712,-0.271771 0.451983,-0.430112 0.08426,-0.15834 0.196359,-0.402204 0.328049,-0.736293 l 1.545482,-4.374005 1.545484,4.39588 c 0.128654,0.325705 0.23116,0.566052 0.313472,0.721704 0.08229,0.155661 0.233152,0.300996 0.451979,0.430112 0.218808,0.129125 0.509946,0.189547 0.874801,0.189547 0.383562,0 0.684187,-0.06299 0.896673,-0.196833 0.212463,-0.133848 0.361169,-0.284511 0.444691,-0.451978 0.08349,-0.167476 0.181391,-0.422795 0.29889,-0.758169 l 1.735023,-4.986369 c 0.107508,-0.313021 0.160366,-0.539586 0.16038,-0.685257 -1.4e-5,-0.222359 -0.105322,-0.410612 -0.328049,-0.561329 -0.222759,-0.150709 -0.497254,-0.225985 -0.816482,-0.225993 -0.320159,8e-6 -0.567171,0.05672 -0.736291,0.174957 -0.169146,0.118282 -0.2853,0.246842 -0.349921,0.386371 -0.06465,0.139552 -0.131302,0.323966 -0.196831,0.546755 l -1.217432,4.24279 -1.377812,-3.973062 c -0.128067,-0.333643 -0.232085,-0.57334 -0.313471,-0.729 -0.08141,-0.155645 -0.231361,-0.306644 -0.451982,-0.444692 -0.220636,-0.138025 -0.528375,-0.204111 -0.925832,-0.204119 -0.390825,8e-6 -0.703439,0.06386 -0.933121,0.196832 -0.229693,0.132995 -0.393751,0.288906 -0.488431,0.459265 -0.09469,0.170382 -0.198101,0.407407 -0.31347,0.721714 l -1.363233,3.973062 -1.224721,-4.27195 c -0.09635,-0.323983 -0.221386,-0.581722 -0.371792,-0.780036 -0.150409,-0.198289 -0.455154,-0.298879 -0.90396,-0.298887 z M 0.55054781,30.645453 C 3.5175871,40.598846 12.961183,47.871755 24.090001,47.871755 c 11.128971,0 20.572552,-7.272696 23.539452,-17.226302 l -3.448175,0 c -0.328808,0.938716 -0.72178,1.846296 -1.180983,2.719175 l -6.998413,0 c 0.297944,-0.889956 0.543884,-1.799686 0.750871,-2.719175 l -3.331536,0 c -0.232583,0.929764 -0.511247,1.838163 -0.85293,2.719175 l -7.238983,0 0,-2.719175 -3.265926,0 0,2.719175 -6.612044,0 c -0.299813,-0.877749 -0.557761,-1.787102 -0.772741,-2.719175 l -3.353406,0 c 0.187885,0.920554 0.417179,1.829263 0.677972,2.719175 l -6.8234526,0 C 4.720501,32.491749 4.320241,31.584169 3.9914332,30.645453 l -3.44088539,0 z m 6.77242129,5.985102 5.8538819,0 c 1.194762,2.763638 2.778831,5.231815 4.818698,7.107763 -4.294732,-1.24225 -7.9961826,-3.76309 -10.6725799,-7.107763 z m 9.4915989,0 5.24881,0 0,6.101743 c -2.121007,-1.344535 -3.89501,-3.487996 -5.24881,-6.101743 z m 8.514736,0 5.61331,0 c -1.425139,2.382268 -3.278451,4.443237 -5.61331,5.948651 l 0,-5.948651 z m 9.367665,0 6.160063,0 c -2.947735,3.683761 -7.145285,6.365894 -11.999361,7.443104 2.49079,-2.014035 4.426102,-4.578333 5.839298,-7.443104 z"
     id="path3592-4-4-3-8"
     inkscape:connector-curvature="0" /><g
     id="g4700"
     transform="matrix(0.80123151,0,0,0.80123151,12.194562,13.050592)"><path
       sodipodi:nodetypes="cccccc"
       id="path9"
       d="M 40,39 12,39 8,35 8,8 40,8 40,39 Z"
       style="fill:none;fill-rule:nonzero;stroke:#000000;stroke-width:6;stroke-linecap:round;stroke-linejoin:round;stroke-miterlimit:4;stroke-dasharray:none"
       inkscape:connector-curvature="0" /><path
       id="path11"
       d="m 39.8,38.7 -27.8,0 -3.8,-3.8 0,-26.1 31.6,0 0,29.9 z"
       style="fill-rule:nonzero;stroke:none;stroke-miterlimit:4"
       inkscape:connector-curvature="0" /><path
       sodipodi:nodetypes="ccccccccc"
       id="path13"
       d="m 33,37 c 0,1.1 -0.9,2 -2,2 l -17,0 c -1.1,0 -2,-0.9 -2,-2 l 0,-9 c 0,-1.1 0.9,-2 2,-2 l 17,0 c 1.1,0 2,0.9 2,2 l 0,9 z"
       style="fill:#ffffff;fill-rule:nonzero;stroke:none;stroke-width:1.67390001;stroke-miterlimit:4"
       inkscape:connector-curvature="0" /><path
       sodipodi:nodetypes="ccccc"
       id="path15"
       d="m 21,37 -6,0 0,-9 6,0 0,9 z"
       style="fill-rule:nonzero;stroke:none;stroke-miterlimit:4"
       inkscape:connector-curvature="0" /><path
       sodipodi:nodetypes="ccccc"
       id="path17"
       d="M 38,22 10,22 10,9 38,9 38,22 Z"
       style="fill:#ffffff;fill-rule:nonzero;stroke:none;stroke-width:1.67390001;stroke-miterlimit:4"
       inkscape:connector-curvature="0" /></g><g
     id="crop_x0020_marks"
     style="fill-rule:nonzero;stroke:#000000;stroke-miterlimit:4"><path
       style="fill:none;stroke:none"
       d="M 48,48 L 0,48 L 0,0 L 48,0 L 48,48 z "
       id="path20" /></g></svg>