/* XPM */
static const char * down_on_xpm[] = {
"16 16 2 1",
" 	c None",
".	s 1	c black",
"                ",
"      ...       ",
"      ...       ",
"      ...       ",
"      ...       ",
"      ...       ",
"      ...       ",
"      ...       ",
" .............  ",
"  ...........   ",
"   .........    ",
"    .......     ",
"     .....      ",
"      ...       ",
"       .        ",
"                "};
