/* XPM */

static const char *
go_button_data[] = {
  /* width height num_colors chars_per_pixel x_hot y_hot */
  "20 16 12 1 0 0",

  /* colors */
  ". s symbol1 c #d5d5d5 m white",
  "# s symbol2 c #9bc816 m black",
  "a s symbol3 c #999999 m white",
  "b s symbol4 c #666666 m black",
  "c s symbol5 c #99cc00 m black",
  "d s symbol6 c #5f6156 m black",
  "e s symbol7 c #9dcd0e m black",
  "f s symbol8 c #c5de6b m white",
  "g s symbol9 c #f9fcef m white",
  "h s symbol10 c #ffffff m white",
  "i s symbol11 c #79932e m black",
  "  s mask c none",

  /* pixels */
  "                    ",
  "    ##########f     ",
  "  #############f    ",
  "  ###f###f######f   ",
  "  ####hf##gf#####.  ",
  "  #####hfechf####b. ",
  "  #####hhfchhf###ba ",
  "  #####hhfchhf###ba ",
  "  #####hfechf####ba ",
  "  ####hf##gf#####ba ",
  "  ###f###f######iba ",
  "  #############idba ",
  "    ##########idda. ",
  "     abbbbbbbbbba.  ",
  "     .aaaaaaaaaa.   ",
  "                    ",
};
