/* XPM */
static const char * left_off_xpm[] = {
"16 16 2 1 0 0",
"      c None",
". s 1 c #bebebe",
"                ",
"                ",
"       .        ",
"      ..        ",
"     ...        ",
"    ....        ",
"   .....        ",
"  ............. ",
" .............. ",
"  ............. ",
"   .....        ",
"    ....        ",
"     ...        ",
"      ..        ",
"       .        ",
"                "};
