/* XPM */
static const char * right_off_xpm[] = {
"16 16 2 1",
"      c None",
". s 1 c #bebebe",
"                ",
"                ",
"        .       ",
"        ..      ",
"        ...     ",
"        ....    ",
"        .....   ",
" .............  ",
" .............. ",
" .............  ",
"        .....   ",
"        ....    ",
"        ...     ",
"        ..      ",
"        .       ",
"                "};
